STARTFONT 2.1
FONT -FontForge-Orbitron-Light-R-Normal--19-180-75-75-P-127-ISO10646-1
SIZE 18 75 75
FONTBOUNDINGBOX 29 24 -3 -5
COMMENT "Generated by fontforge, http://fontforge.sourceforge.net"
STARTPROPERTIES 38
FOUNDRY "FontForge"
FAMILY_NAME "Orbitron"
WEIGHT_NAME "Light"
SLANT "R"
SETWIDTH_NAME "Normal"
ADD_STYLE_NAME ""
PIXEL_SIZE 19
POINT_SIZE 180
RESOLUTION_X 75
RESOLUTION_Y 75
SPACING "P"
AVERAGE_WIDTH 127
CHARSET_REGISTRY "ISO10646"
CHARSET_ENCODING "1"
FONTNAME_REGISTRY ""
CHARSET_COLLECTIONS "ISO10646-1"
FONT_NAME "Orbitron-Light"
FACE_NAME "Orbitron Light"
FONT_VERSION "1.000"
FONT_ASCENT 14
FONT_DESCENT 5
UNDERLINE_POSITION -2
UNDERLINE_THICKNESS 1
X_HEIGHT 10
CAP_HEIGHT 13
RAW_ASCENT 750
RAW_DESCENT 250
NORM_SPACE 5
RELATIVE_WEIGHT 30
RELATIVE_SETWIDTH 50
SUPERSCRIPT_X 0
SUPERSCRIPT_Y 9
SUPERSCRIPT_SIZE 12
SUBSCRIPT_X 0
SUBSCRIPT_Y 2
SUBSCRIPT_SIZE 12
AVG_LOWERCASE_WIDTH 126
AVG_UPPERCASE_WIDTH 152
ENDPROPERTIES
CHARS 250
STARTCHAR space
ENCODING 32
SWIDTH 272 0
DWIDTH 5 0
BBX 1 1 0 0
BITMAP
00
ENDCHAR
STARTCHAR exclam
ENCODING 33
SWIDTH 220 0
DWIDTH 4 0
BBX 2 14 1 0
BITMAP
C0
C0
C0
C0
C0
C0
C0
C0
C0
C0
00
00
C0
C0
ENDCHAR
STARTCHAR quotedbl
ENCODING 34
SWIDTH 372 0
DWIDTH 7 0
BBX 5 3 1 11
BITMAP
D8
D8
D8
ENDCHAR
STARTCHAR numbersign
ENCODING 35
SWIDTH 797 0
DWIDTH 15 0
BBX 14 14 1 0
BITMAP
0418
0C10
0C10
FFFC
FFFC
1820
1060
1060
3040
FFF8
FFF8
6080
6180
C180
ENDCHAR
STARTCHAR dollar
ENCODING 36
SWIDTH 788 0
DWIDTH 15 0
BBX 15 18 0 -2
BITMAP
0180
0180
7FFC
FFFE
C186
C180
C180
C180
FFFC
7FFE
0186
0186
0186
C186
FFFE
7FFC
0180
0180
ENDCHAR
STARTCHAR percent
ENCODING 37
SWIDTH 966 0
DWIDTH 19 0
BBX 17 14 1 0
BITMAP
780100
840300
840600
840C00
841800
787000
00E000
01C000
031F00
062080
1C2080
382080
302080
401F00
ENDCHAR
STARTCHAR ampersand
ENCODING 38
SWIDTH 938 0
DWIDTH 18 0
BBX 17 14 1 0
BITMAP
3FF800
7FFC00
600C00
600000
600000
600000
580000
C60000
C18C00
C06C00
C01C00
C00600
FFFD80
7FF880
ENDCHAR
STARTCHAR quotesingle
ENCODING 39
SWIDTH 224 0
DWIDTH 4 0
BBX 2 3 1 11
BITMAP
C0
C0
C0
ENDCHAR
STARTCHAR parenleft
ENCODING 40
SWIDTH 277 0
DWIDTH 5 0
BBX 3 14 1 0
BITMAP
60
E0
C0
C0
C0
C0
C0
C0
C0
C0
C0
C0
E0
60
ENDCHAR
STARTCHAR parenright
ENCODING 41
SWIDTH 278 0
DWIDTH 5 0
BBX 3 14 1 0
BITMAP
C0
E0
60
60
60
60
60
60
60
60
60
60
E0
C0
ENDCHAR
STARTCHAR asterisk
ENCODING 42
SWIDTH 491 0
DWIDTH 9 0
BBX 8 8 1 6
BITMAP
18
18
99
FF
3C
3C
66
42
ENDCHAR
STARTCHAR plus
ENCODING 43
SWIDTH 433 0
DWIDTH 8 0
BBX 8 7 0 2
BITMAP
18
18
FF
FF
18
18
18
ENDCHAR
STARTCHAR comma
ENCODING 44
SWIDTH 193 0
DWIDTH 4 0
BBX 2 4 1 -2
BITMAP
C0
C0
C0
80
ENDCHAR
STARTCHAR hyphen
ENCODING 45
SWIDTH 517 0
DWIDTH 10 0
BBX 8 2 1 5
BITMAP
FF
FF
ENDCHAR
STARTCHAR period
ENCODING 46
SWIDTH 214 0
DWIDTH 4 0
BBX 2 2 1 0
BITMAP
C0
C0
ENDCHAR
STARTCHAR slash
ENCODING 47
SWIDTH 521 0
DWIDTH 10 0
BBX 10 14 0 0
BITMAP
0040
0040
0080
0180
0300
0600
0C00
0800
1800
3000
6000
C000
8000
8000
ENDCHAR
STARTCHAR zero
ENCODING 48
SWIDTH 834 0
DWIDTH 16 0
BBX 14 14 1 0
BITMAP
7FF8
FFFC
C00C
C01C
C06C
C0CC
C10C
C20C
CC0C
D80C
F00C
C00C
FFFC
7FF8
ENDCHAR
STARTCHAR one
ENCODING 49
SWIDTH 391 0
DWIDTH 8 0
BBX 6 14 0 0
BITMAP
1C
3C
6C
6C
8C
0C
0C
0C
0C
0C
0C
0C
0C
0C
ENDCHAR
STARTCHAR two
ENCODING 50
SWIDTH 830 0
DWIDTH 16 0
BBX 14 14 1 0
BITMAP
7FF8
FFFC
C00C
000C
000C
000C
7FFC
FFF8
C000
C000
C000
C000
FFFC
FFFC
ENDCHAR
STARTCHAR three
ENCODING 51
SWIDTH 826 0
DWIDTH 16 0
BBX 14 14 1 0
BITMAP
7FF0
FFF8
C018
0018
0018
0018
3FF8
3FFC
000C
000C
000C
C00C
FFFC
7FF8
ENDCHAR
STARTCHAR four
ENCODING 52
SWIDTH 730 0
DWIDTH 14 0
BBX 14 14 -1 0
BITMAP
0070
00F0
01F0
03B0
0730
0E30
1830
3030
6030
FFFC
FFFC
0030
0030
0030
ENDCHAR
STARTCHAR five
ENCODING 53
SWIDTH 830 0
DWIDTH 16 0
BBX 14 14 1 0
BITMAP
FFFC
FFFC
C000
C000
C000
C000
FFF8
FFFC
000C
000C
000C
C00C
FFFC
7FF8
ENDCHAR
STARTCHAR six
ENCODING 54
SWIDTH 820 0
DWIDTH 16 0
BBX 14 14 1 0
BITMAP
7FF0
FFF0
C000
C000
C000
C000
FFF8
FFFC
C00C
C00C
C00C
C00C
FFFC
7FF8
ENDCHAR
STARTCHAR seven
ENCODING 55
SWIDTH 660 0
DWIDTH 13 0
BBX 12 14 0 0
BITMAP
FFE0
FFF0
0030
0030
0030
0030
0030
0030
0030
0030
0030
0030
0030
0030
ENDCHAR
STARTCHAR eight
ENCODING 56
SWIDTH 834 0
DWIDTH 16 0
BBX 14 14 1 0
BITMAP
7FF8
FFFC
C00C
C00C
C00C
C00C
C00C
FFFC
C00C
C00C
C00C
C00C
FFFC
7FF8
ENDCHAR
STARTCHAR nine
ENCODING 57
SWIDTH 828 0
DWIDTH 16 0
BBX 14 14 1 0
BITMAP
7FF8
FFFC
C00C
C00C
C00C
C00C
FFFC
7FFC
000C
000C
000C
000C
FFFC
7FF8
ENDCHAR
STARTCHAR colon
ENCODING 58
SWIDTH 214 0
DWIDTH 4 0
BBX 2 11 1 0
BITMAP
C0
C0
00
00
00
00
00
00
00
C0
C0
ENDCHAR
STARTCHAR semicolon
ENCODING 59
SWIDTH 193 0
DWIDTH 4 0
BBX 2 13 1 -2
BITMAP
C0
C0
00
00
00
00
00
00
00
C0
C0
C0
80
ENDCHAR
STARTCHAR less
ENCODING 60
SWIDTH 473 0
DWIDTH 9 0
BBX 8 11 0 0
BITMAP
01
07
0E
38
E0
C0
E0
38
0E
07
01
ENDCHAR
STARTCHAR equal
ENCODING 61
SWIDTH 638 0
DWIDTH 12 0
BBX 10 5 1 3
BITMAP
FFC0
FFC0
0000
FFC0
FFC0
ENDCHAR
STARTCHAR greater
ENCODING 62
SWIDTH 475 0
DWIDTH 9 0
BBX 8 11 1 0
BITMAP
80
E0
70
1C
07
03
07
1C
70
E0
80
ENDCHAR
STARTCHAR question
ENCODING 63
SWIDTH 678 0
DWIDTH 14 0
BBX 13 14 0 0
BITMAP
FFF0
FFF8
0018
0018
0018
0018
0018
0FF8
1FF0
1800
0000
0000
1800
1800
ENDCHAR
STARTCHAR at
ENCODING 64
SWIDTH 831 0
DWIDTH 16 0
BBX 14 14 1 0
BITMAP
7FF8
FFFC
C00C
C00C
C78C
C84C
C84C
C84C
C84C
C7FC
C000
C000
FFFC
7FFC
ENDCHAR
STARTCHAR A
ENCODING 65
SWIDTH 836 0
DWIDTH 16 0
BBX 14 14 1 0
BITMAP
7FF8
FFFC
C00C
C00C
C00C
C00C
C00C
FFFC
FFFC
C00C
C00C
C00C
C00C
C00C
ENDCHAR
STARTCHAR B
ENCODING 66
SWIDTH 832 0
DWIDTH 16 0
BBX 14 14 1 0
BITMAP
FFF0
FFF8
C018
C018
C018
C018
FFF8
FFFC
C00C
C00C
C00C
C00C
FFFC
FFF8
ENDCHAR
STARTCHAR C
ENCODING 67
SWIDTH 822 0
DWIDTH 16 0
BBX 14 14 1 0
BITMAP
7FFC
FFFC
C000
C000
C000
C000
C000
C000
C000
C000
C000
C000
FFFC
7FFC
ENDCHAR
STARTCHAR D
ENCODING 68
SWIDTH 834 0
DWIDTH 16 0
BBX 14 14 1 0
BITMAP
FFF8
FFFC
C00C
C00C
C00C
C00C
C00C
C00C
C00C
C00C
C00C
C00C
FFFC
FFF8
ENDCHAR
STARTCHAR E
ENCODING 69
SWIDTH 766 0
DWIDTH 15 0
BBX 13 14 1 0
BITMAP
FFF8
FFF8
C000
C000
C000
C000
FFE0
FFE0
C000
C000
C000
C000
FFF8
FFF8
ENDCHAR
STARTCHAR F
ENCODING 70
SWIDTH 723 0
DWIDTH 14 0
BBX 13 14 1 0
BITMAP
FFF8
FFF8
C000
C000
C000
C000
FFE0
FFE0
C000
C000
C000
C000
C000
C000
ENDCHAR
STARTCHAR G
ENCODING 71
SWIDTH 830 0
DWIDTH 16 0
BBX 14 14 1 0
BITMAP
7FF8
FFFC
C00C
C000
C000
C000
C000
C07C
C07C
C00C
C00C
C00C
FFFC
7FF8
ENDCHAR
STARTCHAR H
ENCODING 72
SWIDTH 851 0
DWIDTH 17 0
BBX 15 14 1 0
BITMAP
C006
C006
C006
C006
C006
C006
FFFE
FFFE
C006
C006
C006
C006
C006
C006
ENDCHAR
STARTCHAR I
ENCODING 73
SWIDTH 220 0
DWIDTH 4 0
BBX 2 14 1 0
BITMAP
C0
C0
C0
C0
C0
C0
C0
C0
C0
C0
C0
C0
C0
C0
ENDCHAR
STARTCHAR J
ENCODING 74
SWIDTH 780 0
DWIDTH 15 0
BBX 14 14 0 0
BITMAP
000C
000C
000C
000C
000C
000C
000C
000C
000C
000C
000C
C00C
FFFC
7FF8
ENDCHAR
STARTCHAR K
ENCODING 75
SWIDTH 797 0
DWIDTH 15 0
BBX 14 14 1 0
BITMAP
C018
C030
C060
C060
C0C0
C180
FF00
FF00
C180
C0C0
C060
C060
C030
C01C
ENDCHAR
STARTCHAR L
ENCODING 76
SWIDTH 779 0
DWIDTH 15 0
BBX 14 14 1 0
BITMAP
C000
C000
C000
C000
C000
C000
C000
C000
C000
C000
C000
C000
FFFC
FFFC
ENDCHAR
STARTCHAR M
ENCODING 77
SWIDTH 928 0
DWIDTH 18 0
BBX 16 14 1 0
BITMAP
E007
E007
D00B
D81B
CC33
C663
C3C3
C183
C183
C003
C003
C003
C003
C003
ENDCHAR
STARTCHAR N
ENCODING 78
SWIDTH 832 0
DWIDTH 16 0
BBX 14 14 1 0
BITMAP
C00C
E00C
D00C
D80C
CC0C
C60C
C20C
C10C
C18C
C0CC
C06C
C02C
C01C
C00C
ENDCHAR
STARTCHAR O
ENCODING 79
SWIDTH 828 0
DWIDTH 16 0
BBX 14 14 1 0
BITMAP
7FF8
FFFC
C00C
C00C
C00C
C00C
C00C
C00C
C00C
C00C
C00C
C00C
FFFC
7FF8
ENDCHAR
STARTCHAR P
ENCODING 80
SWIDTH 791 0
DWIDTH 16 0
BBX 14 14 1 0
BITMAP
FFF8
FFFC
C00C
C00C
C00C
C00C
C00C
FFFC
FFF8
C000
C000
C000
C000
C000
ENDCHAR
STARTCHAR Q
ENCODING 81
SWIDTH 884 0
DWIDTH 17 0
BBX 16 14 1 0
BITMAP
7FF8
FFFC
C00C
C00C
C00C
C00C
C00C
C00C
C00C
C00C
C00C
C00C
FFFF
7FFF
ENDCHAR
STARTCHAR R
ENCODING 82
SWIDTH 825 0
DWIDTH 16 0
BBX 14 14 1 0
BITMAP
FFF8
FFFC
C00C
C00C
C00C
C00C
C00C
FFFC
FFF8
C0C0
C060
C030
C018
C00C
ENDCHAR
STARTCHAR S
ENCODING 83
SWIDTH 822 0
DWIDTH 16 0
BBX 14 14 1 0
BITMAP
7FF8
FFFC
C00C
C000
C000
C000
FFF8
7FFC
000C
000C
000C
C00C
FFFC
7FF8
ENDCHAR
STARTCHAR T
ENCODING 84
SWIDTH 759 0
DWIDTH 14 0
BBX 14 14 0 0
BITMAP
FFFC
FFFC
0300
0300
0300
0300
0300
0300
0300
0300
0300
0300
0300
0300
ENDCHAR
STARTCHAR U
ENCODING 85
SWIDTH 828 0
DWIDTH 16 0
BBX 14 14 1 0
BITMAP
C00C
C00C
C00C
C00C
C00C
C00C
C00C
C00C
C00C
C00C
C00C
C00C
FFFC
7FF8
ENDCHAR
STARTCHAR V
ENCODING 86
SWIDTH 1003 0
DWIDTH 19 0
BBX 17 14 1 0
BITMAP
C00180
400100
600300
200200
300600
180C00
180C00
0C1800
0C1000
063000
022000
036000
01C000
01C000
ENDCHAR
STARTCHAR W
ENCODING 87
SWIDTH 1179 0
DWIDTH 22 0
BBX 21 14 1 0
BITMAP
806018
C07010
40F030
60D030
609820
219860
318840
310CC0
1304C0
1B0680
1A0780
0E0380
0E0300
0C0300
ENDCHAR
STARTCHAR X
ENCODING 88
SWIDTH 812 0
DWIDTH 15 0
BBX 13 14 1 0
BITMAP
C018
6030
3060
18C0
0CC0
0D80
0700
0700
0F80
0CC0
18C0
3060
6030
C018
ENDCHAR
STARTCHAR Y
ENCODING 89
SWIDTH 806 0
DWIDTH 15 0
BBX 14 14 0 0
BITMAP
C00C
6018
3010
3030
1860
0CC0
0FC0
0780
0300
0300
0300
0300
0300
0300
ENDCHAR
STARTCHAR Z
ENCODING 90
SWIDTH 821 0
DWIDTH 16 0
BBX 14 14 1 0
BITMAP
FFFC
FFFC
0018
0030
0060
00C0
0300
0600
0C00
1800
3000
C000
FFFC
FFFC
ENDCHAR
STARTCHAR bracketleft
ENCODING 91
SWIDTH 275 0
DWIDTH 5 0
BBX 3 14 1 0
BITMAP
E0
E0
C0
C0
C0
C0
C0
C0
C0
C0
C0
C0
E0
E0
ENDCHAR
STARTCHAR backslash
ENCODING 92
SWIDTH 520 0
DWIDTH 10 0
BBX 10 14 0 0
BITMAP
8000
8000
C000
6000
3000
1800
0800
0C00
0600
0300
0180
0080
0040
0040
ENDCHAR
STARTCHAR bracketright
ENCODING 93
SWIDTH 276 0
DWIDTH 5 0
BBX 3 14 1 0
BITMAP
E0
E0
60
60
60
60
60
60
60
60
60
60
E0
E0
ENDCHAR
STARTCHAR underscore
ENCODING 95
SWIDTH 828 0
DWIDTH 16 0
BBX 14 2 1 -2
BITMAP
FFFC
FFFC
ENDCHAR
STARTCHAR grave
ENCODING 96
SWIDTH 213 0
DWIDTH 4 0
BBX 2 3 1 16
BITMAP
80
80
C0
ENDCHAR
STARTCHAR a
ENCODING 97
SWIDTH 694 0
DWIDTH 14 0
BBX 12 11 1 0
BITMAP
FFE0
FFF0
0030
0030
FFF0
FFF0
C030
C030
C030
FFF0
7FF0
ENDCHAR
STARTCHAR b
ENCODING 98
SWIDTH 667 0
DWIDTH 14 0
BBX 12 15 1 0
BITMAP
C000
C000
C000
C000
FFE0
FFF0
C030
C030
C030
C030
C030
C030
C030
FFF0
FFE0
ENDCHAR
STARTCHAR c
ENCODING 99
SWIDTH 695 0
DWIDTH 13 0
BBX 12 11 1 0
BITMAP
7FF0
FFF0
C000
C000
C000
C000
C000
C000
C000
FFF0
7FF0
ENDCHAR
STARTCHAR d
ENCODING 100
SWIDTH 667 0
DWIDTH 13 0
BBX 12 15 0 0
BITMAP
0030
0030
0030
0030
7FF0
FFF0
C030
C030
C030
C030
C030
C030
C030
FFF0
7FF0
ENDCHAR
STARTCHAR e
ENCODING 101
SWIDTH 692 0
DWIDTH 14 0
BBX 12 11 1 0
BITMAP
7FE0
FFF0
C030
C030
FFF0
FFF0
C000
C000
C000
FFF0
7FF0
ENDCHAR
STARTCHAR f
ENCODING 102
SWIDTH 407 0
DWIDTH 8 0
BBX 7 15 1 0
BITMAP
7E
FE
C0
C0
FE
FE
C0
C0
C0
C0
C0
C0
C0
C0
C0
ENDCHAR
STARTCHAR g
ENCODING 103
SWIDTH 683 0
DWIDTH 13 0
BBX 11 16 1 -5
BITMAP
7FC0
FFE0
C060
C060
C060
C060
C060
C060
C060
FFE0
7FE0
0060
0060
0060
7FE0
7FC0
ENDCHAR
STARTCHAR h
ENCODING 104
SWIDTH 668 0
DWIDTH 14 0
BBX 12 15 1 0
BITMAP
C000
C000
C000
C000
FFE0
FFF0
C030
C030
C030
C030
C030
C030
C030
C030
C030
ENDCHAR
STARTCHAR i
ENCODING 105
SWIDTH 208 0
DWIDTH 4 0
BBX 2 15 1 0
BITMAP
C0
C0
00
00
C0
C0
C0
C0
C0
C0
C0
C0
C0
C0
C0
ENDCHAR
STARTCHAR j
ENCODING 106
SWIDTH 239 0
DWIDTH 5 0
BBX 7 20 -3 -5
BITMAP
06
06
00
00
06
06
06
06
06
06
06
06
06
06
06
06
06
06
FE
FC
ENDCHAR
STARTCHAR k
ENCODING 107
SWIDTH 646 0
DWIDTH 12 0
BBX 11 15 1 0
BITMAP
C000
C000
C000
C000
C060
C0C0
C180
C300
FE00
FE00
C600
C300
C180
C0C0
C060
ENDCHAR
STARTCHAR l
ENCODING 108
SWIDTH 302 0
DWIDTH 6 0
BBX 4 15 1 0
BITMAP
C0
C0
C0
C0
C0
C0
C0
C0
C0
C0
C0
C0
C0
F0
70
ENDCHAR
STARTCHAR m
ENCODING 109
SWIDTH 978 0
DWIDTH 19 0
BBX 17 11 1 0
BITMAP
FFFF00
FFFF80
C18180
C18180
C18180
C18180
C18180
C18180
C18180
C18180
C18180
ENDCHAR
STARTCHAR n
ENCODING 110
SWIDTH 696 0
DWIDTH 14 0
BBX 12 11 1 0
BITMAP
FFE0
FFF0
C030
C030
C030
C030
C030
C030
C030
C030
C030
ENDCHAR
STARTCHAR o
ENCODING 111
SWIDTH 692 0
DWIDTH 14 0
BBX 12 11 1 0
BITMAP
7FE0
FFF0
C030
C030
C030
C030
C030
C030
C030
FFF0
7FE0
ENDCHAR
STARTCHAR p
ENCODING 112
SWIDTH 664 0
DWIDTH 14 0
BBX 12 15 1 -4
BITMAP
FFE0
FFF0
C030
C030
C030
C030
C030
C030
C030
FFF0
FFE0
C000
C000
C000
C000
ENDCHAR
STARTCHAR q
ENCODING 113
SWIDTH 664 0
DWIDTH 13 0
BBX 12 15 0 -4
BITMAP
7FF0
FFF0
C030
C030
C030
C030
C030
C030
C030
FFF0
7FF0
0030
0030
0030
0030
ENDCHAR
STARTCHAR r
ENCODING 114
SWIDTH 512 0
DWIDTH 10 0
BBX 9 11 1 0
BITMAP
7F80
FF80
C000
C000
C000
C000
C000
C000
C000
C000
C000
ENDCHAR
STARTCHAR s
ENCODING 115
SWIDTH 686 0
DWIDTH 14 0
BBX 12 11 1 0
BITMAP
7FE0
FFF0
C000
C000
FFE0
7FF0
0030
0030
0030
FFF0
7FE0
ENDCHAR
STARTCHAR t
ENCODING 116
SWIDTH 410 0
DWIDTH 8 0
BBX 7 15 1 0
BITMAP
C0
C0
C0
C0
FE
FE
C0
C0
C0
C0
C0
C0
C0
FE
7E
ENDCHAR
STARTCHAR u
ENCODING 117
SWIDTH 695 0
DWIDTH 14 0
BBX 12 11 1 0
BITMAP
C030
C030
C030
C030
C030
C030
C030
C030
C030
FFF0
7FE0
ENDCHAR
STARTCHAR v
ENCODING 118
SWIDTH 790 0
DWIDTH 15 0
BBX 14 11 0 0
BITMAP
C00C
600C
3018
3010
1830
1820
0C60
04C0
06C0
0380
0380
ENDCHAR
STARTCHAR w
ENCODING 119
SWIDTH 1071 0
DWIDTH 20 0
BBX 19 11 1 0
BITMAP
C0E060
C0E040
41A0C0
61B0C0
633180
331980
361900
160F00
1C0F00
1C0600
0C0600
ENDCHAR
STARTCHAR x
ENCODING 120
SWIDTH 692 0
DWIDTH 13 0
BBX 11 11 1 0
BITMAP
C060
60C0
3180
1B00
0E00
0E00
0E00
1B00
3180
60C0
C060
ENDCHAR
STARTCHAR y
ENCODING 121
SWIDTH 685 0
DWIDTH 13 0
BBX 11 16 1 -5
BITMAP
C060
C060
C060
C060
C060
C060
C060
C060
C060
FFE0
7FE0
0060
0060
0060
7FE0
7FC0
ENDCHAR
STARTCHAR z
ENCODING 122
SWIDTH 698 0
DWIDTH 13 0
BBX 11 11 1 0
BITMAP
FFE0
FFE0
0060
0180
0300
0600
1800
3000
4000
FFE0
FFE0
ENDCHAR
STARTCHAR braceleft
ENCODING 123
SWIDTH 289 0
DWIDTH 5 0
BBX 4 14 0 0
BITMAP
30
70
60
60
60
60
C0
C0
60
60
60
60
70
30
ENDCHAR
STARTCHAR bar
ENCODING 124
SWIDTH 214 0
DWIDTH 4 0
BBX 2 18 1 -2
BITMAP
C0
C0
C0
C0
C0
C0
C0
C0
C0
C0
C0
C0
C0
C0
C0
C0
C0
C0
ENDCHAR
STARTCHAR braceright
ENCODING 125
SWIDTH 289 0
DWIDTH 5 0
BBX 4 14 1 0
BITMAP
C0
E0
60
60
60
60
30
30
60
60
60
60
E0
C0
ENDCHAR
STARTCHAR asciitilde
ENCODING 126
SWIDTH 404 0
DWIDTH 8 0
BBX 7 2 0 5
BITMAP
E0
1E
ENDCHAR
STARTCHAR space.dup1
ENCODING 160
SWIDTH 272 0
DWIDTH 5 0
BBX 1 1 0 0
BITMAP
00
ENDCHAR
STARTCHAR exclamdown
ENCODING 161
SWIDTH 210 0
DWIDTH 4 0
BBX 2 14 1 0
BITMAP
C0
C0
00
00
C0
C0
C0
C0
C0
C0
C0
C0
C0
C0
ENDCHAR
STARTCHAR cent
ENCODING 162
SWIDTH 636 0
DWIDTH 12 0
BBX 11 16 1 -2
BITMAP
0C00
0C00
0C00
7FE0
FFE0
CC00
CC00
CC00
CC00
CC00
CC00
CC00
FFE0
7FE0
0C00
0C00
ENDCHAR
STARTCHAR sterling
ENCODING 163
SWIDTH 734 0
DWIDTH 14 0
BBX 13 14 1 0
BITMAP
1FF0
3FF8
3018
3000
3000
3000
FFE0
FFE0
3000
3000
3000
3000
FFF8
FFF8
ENDCHAR
STARTCHAR dieresis
ENCODING 168
SWIDTH 385 0
DWIDTH 7 0
BBX 5 2 1 16
BITMAP
D8
D8
ENDCHAR
STARTCHAR degree
ENCODING 176
SWIDTH 439 0
DWIDTH 8 0
BBX 6 6 1 8
BITMAP
78
84
84
84
84
78
ENDCHAR
STARTCHAR acute
ENCODING 180
SWIDTH 213 0
DWIDTH 4 0
BBX 2 3 1 16
BITMAP
C0
80
80
ENDCHAR
STARTCHAR paragraph
ENCODING 182
SWIDTH 833 0
DWIDTH 16 0
BBX 14 14 1 0
BITMAP
7FFC
FFFC
C0CC
C0CC
C0CC
C0CC
C0CC
FFFC
7FFC
00CC
00CC
00CC
00CC
00CC
ENDCHAR
STARTCHAR cedilla
ENCODING 184
SWIDTH 213 0
DWIDTH 4 0
BBX 2 3 1 -3
BITMAP
C0
80
80
ENDCHAR
STARTCHAR questiondown
ENCODING 191
SWIDTH 675 0
DWIDTH 14 0
BBX 13 14 0 0
BITMAP
0060
0060
0000
0000
0060
7FE0
FFC0
C000
C000
C000
C000
C000
FFF0
7FF8
ENDCHAR
STARTCHAR Agrave
ENCODING 192
SWIDTH 836 0
DWIDTH 16 0
BBX 14 19 1 0
BITMAP
0200
0200
0300
0000
0000
7FF8
FFFC
C00C
C00C
C00C
C00C
C00C
FFFC
FFFC
C00C
C00C
C00C
C00C
C00C
ENDCHAR
STARTCHAR Aacute
ENCODING 193
SWIDTH 836 0
DWIDTH 16 0
BBX 14 19 1 0
BITMAP
0300
0200
0200
0000
0000
7FF8
FFFC
C00C
C00C
C00C
C00C
C00C
FFFC
FFFC
C00C
C00C
C00C
C00C
C00C
ENDCHAR
STARTCHAR Acircumflex
ENCODING 194
SWIDTH 836 0
DWIDTH 16 0
BBX 14 19 1 0
BITMAP
0200
0500
0000
0000
0000
7FF8
FFFC
C00C
C00C
C00C
C00C
C00C
FFFC
FFFC
C00C
C00C
C00C
C00C
C00C
ENDCHAR
STARTCHAR Atilde
ENCODING 195
SWIDTH 836 0
DWIDTH 16 0
BBX 14 19 1 0
BITMAP
0E00
01C0
0000
0000
0000
7FF8
FFFC
C00C
C00C
C00C
C00C
C00C
FFFC
FFFC
C00C
C00C
C00C
C00C
C00C
ENDCHAR
STARTCHAR Adieresis
ENCODING 196
SWIDTH 836 0
DWIDTH 16 0
BBX 14 18 1 0
BITMAP
0D80
0D80
0000
0000
7FF8
FFFC
C00C
C00C
C00C
C00C
C00C
FFFC
FFFC
C00C
C00C
C00C
C00C
C00C
ENDCHAR
STARTCHAR Aring
ENCODING 197
SWIDTH 836 0
DWIDTH 16 0
BBX 14 19 1 0
BITMAP
0380
0280
0380
0000
0000
7FF8
FFFC
C00C
C00C
C00C
C00C
C00C
FFFC
FFFC
C00C
C00C
C00C
C00C
C00C
ENDCHAR
STARTCHAR AE
ENCODING 198
SWIDTH 1375 0
DWIDTH 26 0
BBX 25 14 1 0
BITMAP
7FFFFF80
FFFFFF80
C00C0000
C00C0000
C00C0000
C00C0000
C00FFE00
FFFFFE00
FFFC0000
C00C0000
C00C0000
C00C0000
C00FFF80
C00FFF80
ENDCHAR
STARTCHAR Ccedilla
ENCODING 199
SWIDTH 822 0
DWIDTH 16 0
BBX 14 16 1 -2
BITMAP
7FFC
FFFC
C000
C000
C000
C000
C000
C000
C000
C000
C000
C000
FFFC
7FFC
0300
0200
ENDCHAR
STARTCHAR Egrave
ENCODING 200
SWIDTH 766 0
DWIDTH 15 0
BBX 13 19 1 0
BITMAP
0600
0600
0600
0000
0000
FFF8
FFF8
C000
C000
C000
C000
FFE0
FFE0
C000
C000
C000
C000
FFF8
FFF8
ENDCHAR
STARTCHAR Eacute
ENCODING 201
SWIDTH 766 0
DWIDTH 15 0
BBX 13 19 1 0
BITMAP
0600
0600
0600
0000
0000
FFF8
FFF8
C000
C000
C000
C000
FFE0
FFE0
C000
C000
C000
C000
FFF8
FFF8
ENDCHAR
STARTCHAR Ecircumflex
ENCODING 202
SWIDTH 766 0
DWIDTH 15 0
BBX 13 19 1 0
BITMAP
0600
0A00
0100
0000
0000
FFF8
FFF8
C000
C000
C000
C000
FFE0
FFE0
C000
C000
C000
C000
FFF8
FFF8
ENDCHAR
STARTCHAR Edieresis
ENCODING 203
SWIDTH 766 0
DWIDTH 15 0
BBX 13 18 1 0
BITMAP
0D80
0D80
0000
0000
FFF8
FFF8
C000
C000
C000
C000
FFE0
FFE0
C000
C000
C000
C000
FFF8
FFF8
ENDCHAR
STARTCHAR Igrave
ENCODING 204
SWIDTH 220 0
DWIDTH 4 0
BBX 2 19 1 0
BITMAP
80
C0
C0
00
00
C0
C0
C0
C0
C0
C0
C0
C0
C0
C0
C0
C0
C0
C0
ENDCHAR
STARTCHAR Iacute
ENCODING 205
SWIDTH 220 0
DWIDTH 4 0
BBX 2 19 1 0
BITMAP
C0
C0
80
00
00
C0
C0
C0
C0
C0
C0
C0
C0
C0
C0
C0
C0
C0
C0
ENDCHAR
STARTCHAR Icircumflex
ENCODING 206
SWIDTH 220 0
DWIDTH 4 0
BBX 4 19 0 0
BITMAP
60
A0
10
00
00
60
60
60
60
60
60
60
60
60
60
60
60
60
60
ENDCHAR
STARTCHAR Idieresis
ENCODING 207
SWIDTH 220 0
DWIDTH 4 0
BBX 5 18 -1 0
BITMAP
D8
D8
00
00
30
30
30
30
30
30
30
30
30
30
30
30
30
30
ENDCHAR
STARTCHAR Ntilde
ENCODING 209
SWIDTH 832 0
DWIDTH 16 0
BBX 14 19 1 0
BITMAP
0E00
01C0
0000
0000
0000
C00C
E00C
D00C
D80C
CC0C
C60C
C20C
C10C
C18C
C0CC
C06C
C02C
C01C
C00C
ENDCHAR
STARTCHAR Ograve
ENCODING 210
SWIDTH 828 0
DWIDTH 16 0
BBX 14 19 1 0
BITMAP
0600
0200
0300
0000
0000
7FF8
FFFC
C00C
C00C
C00C
C00C
C00C
C00C
C00C
C00C
C00C
C00C
FFFC
7FF8
ENDCHAR
STARTCHAR Oacute
ENCODING 211
SWIDTH 828 0
DWIDTH 16 0
BBX 14 19 1 0
BITMAP
0300
0200
0200
0400
0000
7FF8
FFFC
C00C
C00C
C00C
C00C
C00C
C00C
C00C
C00C
C00C
C00C
FFFC
7FF8
ENDCHAR
STARTCHAR Ocircumflex
ENCODING 212
SWIDTH 828 0
DWIDTH 16 0
BBX 14 19 1 0
BITMAP
0200
0500
0000
0000
0000
7FF8
FFFC
C00C
C00C
C00C
C00C
C00C
C00C
C00C
C00C
C00C
C00C
FFFC
7FF8
ENDCHAR
STARTCHAR Otilde
ENCODING 213
SWIDTH 828 0
DWIDTH 16 0
BBX 14 19 1 0
BITMAP
0E00
01C0
0000
0000
0000
7FF8
FFFC
C00C
C00C
C00C
C00C
C00C
C00C
C00C
C00C
C00C
C00C
FFFC
7FF8
ENDCHAR
STARTCHAR Odieresis
ENCODING 214
SWIDTH 828 0
DWIDTH 16 0
BBX 14 18 1 0
BITMAP
0D80
0D80
0000
0000
7FF8
FFFC
C00C
C00C
C00C
C00C
C00C
C00C
C00C
C00C
C00C
C00C
FFFC
7FF8
ENDCHAR
STARTCHAR multiply
ENCODING 215
SWIDTH 546 0
DWIDTH 10 0
BBX 8 8 1 2
BITMAP
C3
66
3C
18
18
3C
66
C3
ENDCHAR
STARTCHAR Ugrave
ENCODING 217
SWIDTH 828 0
DWIDTH 16 0
BBX 14 19 1 0
BITMAP
0600
0200
0300
0000
0000
C00C
C00C
C00C
C00C
C00C
C00C
C00C
C00C
C00C
C00C
C00C
C00C
FFFC
7FF8
ENDCHAR
STARTCHAR Uacute
ENCODING 218
SWIDTH 828 0
DWIDTH 16 0
BBX 14 19 1 0
BITMAP
0300
0200
0200
0400
0000
C00C
C00C
C00C
C00C
C00C
C00C
C00C
C00C
C00C
C00C
C00C
C00C
FFFC
7FF8
ENDCHAR
STARTCHAR Ucircumflex
ENCODING 219
SWIDTH 828 0
DWIDTH 16 0
BBX 14 19 1 0
BITMAP
0200
0500
0000
0000
0000
C00C
C00C
C00C
C00C
C00C
C00C
C00C
C00C
C00C
C00C
C00C
C00C
FFFC
7FF8
ENDCHAR
STARTCHAR Udieresis
ENCODING 220
SWIDTH 828 0
DWIDTH 16 0
BBX 14 18 1 0
BITMAP
0D80
0D80
0000
0000
C00C
C00C
C00C
C00C
C00C
C00C
C00C
C00C
C00C
C00C
C00C
C00C
FFFC
7FF8
ENDCHAR
STARTCHAR Yacute
ENCODING 221
SWIDTH 806 0
DWIDTH 15 0
BBX 14 19 0 0
BITMAP
0100
0100
0300
0000
0000
C00C
6018
3010
3030
1860
0CC0
0FC0
0780
0300
0300
0300
0300
0300
0300
ENDCHAR
STARTCHAR germandbls
ENCODING 223
SWIDTH 833 0
DWIDTH 16 0
BBX 14 14 1 0
BITMAP
7FF8
FFFC
C00C
C00C
C00C
C00C
C00C
CFFC
C00C
C00C
C00C
C00C
CFFC
CFF8
ENDCHAR
STARTCHAR agrave
ENCODING 224
SWIDTH 725 0
DWIDTH 14 0
BBX 12 17 1 0
BITMAP
0C00
0400
0600
0000
0000
0000
FFE0
FFF0
0030
0030
FFF0
FFF0
C030
C030
C030
FFF0
7FF0
ENDCHAR
STARTCHAR aacute
ENCODING 225
SWIDTH 725 0
DWIDTH 14 0
BBX 12 17 1 0
BITMAP
0600
0400
0400
0800
0000
0000
FFE0
FFF0
0030
0030
FFF0
FFF0
C030
C030
C030
FFF0
7FF0
ENDCHAR
STARTCHAR acircumflex
ENCODING 226
SWIDTH 725 0
DWIDTH 14 0
BBX 12 17 1 0
BITMAP
0400
0A00
0000
0000
0000
0000
FFE0
FFF0
0030
0030
FFF0
FFF0
C030
C030
C030
FFF0
7FF0
ENDCHAR
STARTCHAR atilde
ENCODING 227
SWIDTH 725 0
DWIDTH 14 0
BBX 12 17 1 0
BITMAP
1C00
0380
0000
0000
0000
0000
FFE0
FFF0
0030
0030
FFF0
FFF0
C030
C030
C030
FFF0
7FF0
ENDCHAR
STARTCHAR adieresis
ENCODING 228
SWIDTH 725 0
DWIDTH 14 0
BBX 12 16 1 0
BITMAP
1B00
1B00
0000
0000
0000
FFE0
FFF0
0030
0030
FFF0
FFF0
C030
C030
C030
FFF0
7FF0
ENDCHAR
STARTCHAR aring
ENCODING 229
SWIDTH 725 0
DWIDTH 14 0
BBX 12 17 1 0
BITMAP
0700
0500
0700
0000
0000
0000
FFE0
FFF0
0030
0030
FFF0
FFF0
C030
C030
C030
FFF0
7FF0
ENDCHAR
STARTCHAR ae
ENCODING 230
SWIDTH 1178 0
DWIDTH 24 0
BBX 22 11 1 0
BITMAP
FFFFF8
FFFFFC
00300C
00300C
FFFFFC
FFFFFC
C03000
C03000
C03000
FFFFFC
7FFFFC
ENDCHAR
STARTCHAR ccedilla
ENCODING 231
SWIDTH 693 0
DWIDTH 13 0
BBX 12 13 1 -2
BITMAP
7FF0
FFF0
C000
C000
C000
C000
C000
C000
C000
FFF0
7FF0
0600
0400
ENDCHAR
STARTCHAR egrave
ENCODING 232
SWIDTH 638 0
DWIDTH 12 0
BBX 12 17 1 0
BITMAP
0800
0C00
0C00
0000
0000
0000
7FE0
FFF0
C030
C030
FFF0
FFF0
C000
C000
C000
FFF0
7FF0
ENDCHAR
STARTCHAR eacute
ENCODING 233
SWIDTH 638 0
DWIDTH 12 0
BBX 12 17 1 0
BITMAP
0C00
0C00
0800
0000
0000
0000
7FE0
FFF0
C030
C030
FFF0
FFF0
C000
C000
C000
FFF0
7FF0
ENDCHAR
STARTCHAR ecircumflex
ENCODING 234
SWIDTH 638 0
DWIDTH 12 0
BBX 12 17 1 0
BITMAP
0C00
1400
0200
0000
0000
0000
7FE0
FFF0
C030
C030
FFF0
FFF0
C000
C000
C000
FFF0
7FF0
ENDCHAR
STARTCHAR edieresis
ENCODING 235
SWIDTH 638 0
DWIDTH 12 0
BBX 12 16 1 0
BITMAP
3600
3600
0000
0000
0000
7FE0
FFF0
C030
C030
FFF0
FFF0
C000
C000
C000
FFF0
7FF0
ENDCHAR
STARTCHAR igrave
ENCODING 236
SWIDTH 214 0
DWIDTH 4 0
BBX 3 17 0 0
BITMAP
C0
40
40
20
00
00
60
60
60
60
60
60
60
60
60
60
60
ENDCHAR
STARTCHAR iacute
ENCODING 237
SWIDTH 214 0
DWIDTH 4 0
BBX 2 17 1 0
BITMAP
C0
C0
C0
00
00
00
C0
C0
C0
C0
C0
C0
C0
C0
C0
C0
C0
ENDCHAR
STARTCHAR icircumflex
ENCODING 238
SWIDTH 214 0
DWIDTH 4 0
BBX 4 17 0 0
BITMAP
60
A0
10
00
00
00
60
60
60
60
60
60
60
60
60
60
60
ENDCHAR
STARTCHAR idieresis
ENCODING 239
SWIDTH 214 0
DWIDTH 4 0
BBX 5 16 -1 0
BITMAP
D8
D8
00
00
00
30
30
30
30
30
30
30
30
30
30
30
ENDCHAR
STARTCHAR ntilde
ENCODING 241
SWIDTH 708 0
DWIDTH 13 0
BBX 12 17 1 0
BITMAP
3800
0780
0000
0000
0000
0000
FFE0
FFF0
C030
C030
C030
C030
C030
C030
C030
C030
C030
ENDCHAR
STARTCHAR ograve
ENCODING 242
SWIDTH 692 0
DWIDTH 14 0
BBX 12 17 1 0
BITMAP
0C00
0400
0400
0000
0000
0000
7FE0
FFF0
C030
C030
C030
C030
C030
C030
C030
FFF0
7FE0
ENDCHAR
STARTCHAR oacute
ENCODING 243
SWIDTH 692 0
DWIDTH 14 0
BBX 12 17 1 0
BITMAP
0400
0400
0C00
0000
0000
0000
7FE0
FFF0
C030
C030
C030
C030
C030
C030
C030
FFF0
7FE0
ENDCHAR
STARTCHAR ocircumflex
ENCODING 244
SWIDTH 692 0
DWIDTH 14 0
BBX 12 17 1 0
BITMAP
0C00
1200
0000
0000
0000
0000
7FE0
FFF0
C030
C030
C030
C030
C030
C030
C030
FFF0
7FE0
ENDCHAR
STARTCHAR otilde
ENCODING 245
SWIDTH 692 0
DWIDTH 14 0
BBX 12 17 1 0
BITMAP
3800
0780
0000
0000
0000
0000
7FE0
FFF0
C030
C030
C030
C030
C030
C030
C030
FFF0
7FE0
ENDCHAR
STARTCHAR odieresis
ENCODING 246
SWIDTH 692 0
DWIDTH 14 0
BBX 12 16 1 0
BITMAP
1B00
1B00
0000
0000
0000
7FE0
FFF0
C030
C030
C030
C030
C030
C030
C030
FFF0
7FE0
ENDCHAR
STARTCHAR divide
ENCODING 247
SWIDTH 508 0
DWIDTH 10 0
BBX 9 11 0 0
BITMAP
0C00
0C00
0000
0000
FF80
FF80
0000
0000
0000
0C00
0C00
ENDCHAR
STARTCHAR ugrave
ENCODING 249
SWIDTH 695 0
DWIDTH 14 0
BBX 12 17 1 0
BITMAP
0C00
0400
0400
0000
0000
0000
C030
C030
C030
C030
C030
C030
C030
C030
C030
FFF0
7FE0
ENDCHAR
STARTCHAR uacute
ENCODING 250
SWIDTH 695 0
DWIDTH 14 0
BBX 12 17 1 0
BITMAP
0400
0400
0C00
0000
0000
0000
C030
C030
C030
C030
C030
C030
C030
C030
C030
FFF0
7FE0
ENDCHAR
STARTCHAR ucircumflex
ENCODING 251
SWIDTH 695 0
DWIDTH 14 0
BBX 12 17 1 0
BITMAP
0C00
1200
0000
0000
0000
0000
C030
C030
C030
C030
C030
C030
C030
C030
C030
FFF0
7FE0
ENDCHAR
STARTCHAR udieresis
ENCODING 252
SWIDTH 695 0
DWIDTH 14 0
BBX 12 16 1 0
BITMAP
1B00
1B00
0000
0000
0000
C030
C030
C030
C030
C030
C030
C030
C030
C030
FFF0
7FE0
ENDCHAR
STARTCHAR yacute
ENCODING 253
SWIDTH 688 0
DWIDTH 13 0
BBX 11 22 1 -5
BITMAP
0400
0C00
0C00
0000
0000
0000
C060
C060
C060
C060
C060
C060
C060
C060
C060
FFE0
7FE0
0060
0060
0060
7FE0
7FC0
ENDCHAR
STARTCHAR ydieresis
ENCODING 255
SWIDTH 688 0
DWIDTH 13 0
BBX 11 21 1 -5
BITMAP
1B00
1B00
0000
0000
0000
C060
C060
C060
C060
C060
C060
C060
C060
C060
FFE0
7FE0
0060
0060
0060
7FE0
7FC0
ENDCHAR
STARTCHAR dotlessi
ENCODING 305
SWIDTH 214 0
DWIDTH 4 0
BBX 2 11 1 0
BITMAP
C0
C0
C0
C0
C0
C0
C0
C0
C0
C0
C0
ENDCHAR
STARTCHAR OE
ENCODING 338
SWIDTH 1374 0
DWIDTH 26 0
BBX 25 14 1 0
BITMAP
7FFFFF80
FFFFFF80
C00C0000
C00C0000
C00C0000
C00C0000
C00FFE00
C00FFE00
C00C0000
C00C0000
C00C0000
C00C0000
FFFFFF80
7FFFFF80
ENDCHAR
STARTCHAR oe
ENCODING 339
SWIDTH 1177 0
DWIDTH 24 0
BBX 22 11 1 0
BITMAP
7FFFF8
FFFFFC
C0300C
C0300C
C03FFC
C03FFC
C03000
C03000
C03000
FFFFFC
7FFFFC
ENDCHAR
STARTCHAR Scaron
ENCODING 352
SWIDTH 822 0
DWIDTH 16 0
BBX 14 19 1 0
BITMAP
0D00
0200
0000
0000
0000
7FF8
FFFC
C00C
C000
C000
C000
FFF8
7FFC
000C
000C
000C
C00C
FFFC
7FF8
ENDCHAR
STARTCHAR scaron
ENCODING 353
SWIDTH 687 0
DWIDTH 13 0
BBX 12 17 1 0
BITMAP
1200
0C00
0000
0000
0000
0000
7FE0
FFF0
C000
C000
FFE0
7FF0
0030
0030
0030
FFF0
7FE0
ENDCHAR
STARTCHAR Ydieresis
ENCODING 376
SWIDTH 806 0
DWIDTH 15 0
BBX 14 18 0 0
BITMAP
06C0
06C0
0000
0000
C00C
6018
3010
3030
1860
0CC0
0FC0
0780
0300
0300
0300
0300
0300
0300
ENDCHAR
STARTCHAR Zcaron
ENCODING 381
SWIDTH 821 0
DWIDTH 16 0
BBX 14 19 1 0
BITMAP
0D00
0600
0000
0000
0000
FFFC
FFFC
0018
0030
0060
00C0
0300
0600
0C00
1800
3000
C000
FFFC
FFFC
ENDCHAR
STARTCHAR zcaron
ENCODING 382
SWIDTH 698 0
DWIDTH 13 0
BBX 11 17 1 0
BITMAP
1A00
0C00
0000
0000
0000
0000
FFE0
FFE0
0060
0180
0300
0600
1800
3000
4000
FFE0
FFE0
ENDCHAR
STARTCHAR circumflex
ENCODING 710
SWIDTH 300 0
DWIDTH 6 0
BBX 3 2 1 17
BITMAP
40
A0
ENDCHAR
STARTCHAR caron
ENCODING 711
SWIDTH 297 0
DWIDTH 6 0
BBX 3 2 1 17
BITMAP
A0
40
ENDCHAR
STARTCHAR breve
ENCODING 728
SWIDTH 287 0
DWIDTH 5 0
BBX 3 1 1 17
BITMAP
E0
ENDCHAR
STARTCHAR dotaccent
ENCODING 729
SWIDTH 233 0
DWIDTH 4 0
BBX 2 2 1 17
BITMAP
C0
C0
ENDCHAR
STARTCHAR ring
ENCODING 730
SWIDTH 233 0
DWIDTH 5 0
BBX 3 3 1 16
BITMAP
E0
A0
E0
ENDCHAR
STARTCHAR tilde
ENCODING 732
SWIDTH 403 0
DWIDTH 8 0
BBX 7 2 0 17
BITMAP
E0
1E
ENDCHAR
STARTCHAR endash
ENCODING 8211
SWIDTH 708 0
DWIDTH 13 0
BBX 11 2 1 5
BITMAP
FFE0
FFE0
ENDCHAR
STARTCHAR emdash
ENCODING 8212
SWIDTH 822 0
DWIDTH 16 0
BBX 14 2 1 5
BITMAP
FFFC
FFFC
ENDCHAR
STARTCHAR quoteleft
ENCODING 8216
SWIDTH 168 0
DWIDTH 3 0
BBX 2 4 0 10
BITMAP
40
C0
C0
C0
ENDCHAR
STARTCHAR quoteright
ENCODING 8217
SWIDTH 166 0
DWIDTH 4 0
BBX 2 4 1 10
BITMAP
C0
C0
C0
80
ENDCHAR
STARTCHAR quotedblleft
ENCODING 8220
SWIDTH 363 0
DWIDTH 7 0
BBX 5 4 1 10
BITMAP
48
D8
D8
D8
ENDCHAR
STARTCHAR quotedblright
ENCODING 8221
SWIDTH 363 0
DWIDTH 7 0
BBX 5 4 1 10
BITMAP
D8
D8
D8
90
ENDCHAR
STARTCHAR bullet
ENCODING 8226
SWIDTH 371 0
DWIDTH 7 0
BBX 2 1 3 6
BITMAP
C0
ENDCHAR
STARTCHAR ellipsis
ENCODING 8230
SWIDTH 574 0
DWIDTH 11 0
BBX 9 2 1 0
BITMAP
D980
D980
ENDCHAR
STARTCHAR Euro
ENCODING 8364
SWIDTH 799 0
DWIDTH 15 0
BBX 14 14 0 0
BITMAP
1FFC
3FFC
3000
3000
FFF0
FFF0
3000
3000
FFF0
FFF0
3000
3000
3FFC
1FFC
ENDCHAR
STARTCHAR minus
ENCODING 8722
SWIDTH 517 0
DWIDTH 10 0
BBX 8 2 1 5
BITMAP
FF
FF
ENDCHAR
STARTCHAR uniE000
ENCODING 57344
SWIDTH 0 0
DWIDTH 0 0
BBX 1 1 0 0
BITMAP
00
ENDCHAR
STARTCHAR seven.alt
ENCODING 57346
SWIDTH 771 0
DWIDTH 15 0
BBX 14 14 1 0
BITMAP
FFFC
FFF0
0030
0060
00C0
0180
0300
0200
0600
0C00
1800
3000
6000
C000
ENDCHAR
STARTCHAR nine.alt
ENCODING 57347
SWIDTH 784 0
DWIDTH 16 0
BBX 15 14 0 0
BITMAP
7FFC
FFFE
C006
C006
C006
C006
FFFE
7FFE
0006
0006
0006
0006
0006
0006
ENDCHAR
STARTCHAR two.alt
ENCODING 57349
SWIDTH 815 0
DWIDTH 16 0
BBX 14 14 1 0
BITMAP
7FF8
FFFC
C00C
000C
001C
0070
01C0
0700
1C00
7000
C000
C000
FFFC
7FFC
ENDCHAR
STARTCHAR question.alt
ENCODING 57350
SWIDTH 667 0
DWIDTH 14 0
BBX 13 14 0 0
BITMAP
7FF0
FFF8
C018
C018
0018
0018
0018
07F8
0FF0
0C00
0C00
0000
0C00
0C00
ENDCHAR
STARTCHAR four.alt
ENCODING 57351
SWIDTH 723 0
DWIDTH 13 0
BBX 14 14 -1 0
BITMAP
0180
0380
0300
0600
0C00
1800
1030
2030
6030
FFFC
FFFC
0030
0030
0030
ENDCHAR
STARTCHAR W.alt2
ENCODING 57352
SWIDTH 1168 0
DWIDTH 23 0
BBX 22 14 0 0
BITMAP
C1C00C
60600C
30300C
18300C
0C180C
0C0C0C
060E0C
030F0C
018D8C
00CCCC
006C6C
006C2C
003C3C
001C1C
ENDCHAR
STARTCHAR W.alt
ENCODING 57353
SWIDTH 1171 0
DWIDTH 22 0
BBX 22 14 1 0
BITMAP
C00E0C
C01818
C03030
C03060
C060C0
C0C0C0
C1C180
C3C300
C6C600
CCCC00
D8D800
D0D800
F0F000
E0E000
ENDCHAR
STARTCHAR V.alt
ENCODING 57354
SWIDTH 774 0
DWIDTH 15 0
BBX 14 14 1 0
BITMAP
C00C
C018
C030
C060
C0C0
C0C0
C180
C300
C600
CC00
D800
D800
F000
E000
ENDCHAR
STARTCHAR A.alt
ENCODING 57355
SWIDTH 774 0
DWIDTH 15 0
BBX 14 14 0 0
BITMAP
001C
003C
006C
004C
008C
018C
030C
060C
0FFC
0FFC
180C
300C
600C
C00C
ENDCHAR
STARTCHAR A.alt2
ENCODING 57356
SWIDTH 774 0
DWIDTH 15 0
BBX 14 14 1 0
BITMAP
E000
F000
D800
C800
C400
C600
C300
C180
FFC0
FFC0
C060
C030
C018
C00C
ENDCHAR
STARTCHAR .notdef
ENCODING -1
SWIDTH 0 0
DWIDTH 0 0
BBX 1 1 0 0
BITMAP
00
ENDCHAR
STARTCHAR .null
ENCODING -1
SWIDTH 0 0
DWIDTH 0 0
BBX 1 1 0 0
BITMAP
00
ENDCHAR
STARTCHAR nonmarkingreturn
ENCODING -1
SWIDTH 401 0
DWIDTH 8 0
BBX 1 1 0 0
BITMAP
00
ENDCHAR
STARTCHAR A.alt3
ENCODING -1
SWIDTH 827 0
DWIDTH 16 0
BBX 17 14 -1 0
BITMAP
00C000
01C000
036000
032000
063000
063000
0C1800
0C1C00
180C00
1FFE00
3FFE00
300700
600300
E00180
ENDCHAR
STARTCHAR C.alt
ENCODING -1
SWIDTH 822 0
DWIDTH 15 0
BBX 13 14 1 0
BITMAP
7FF0
FFF8
C008
C008
C000
C000
C000
C000
C000
C000
C008
C008
FFF8
7FF0
ENDCHAR
STARTCHAR I.alt
ENCODING -1
SWIDTH 818 0
DWIDTH 16 0
BBX 14 14 1 0
BITMAP
FFFC
FFFC
0300
0300
0300
0300
0300
0300
0300
0300
0300
0300
FFFC
FFFC
ENDCHAR
STARTCHAR J.alt
ENCODING -1
SWIDTH 645 0
DWIDTH 12 0
BBX 12 14 -1 0
BITMAP
0030
0030
0030
0030
0030
0030
0030
0030
0030
0030
0030
0030
FFF0
FFE0
ENDCHAR
STARTCHAR K.alt
ENCODING -1
SWIDTH 829 0
DWIDTH 16 0
BBX 14 14 1 0
BITMAP
C00C
C00C
C00C
C00C
C00C
C00C
FFF8
FFF8
C00C
C00C
C00C
C00C
C00C
C00C
ENDCHAR
STARTCHAR M.alt
ENCODING -1
SWIDTH 1155 0
DWIDTH 22 0
BBX 20 14 1 0
BITMAP
FFFFE0
FFFFF0
C06030
C06030
C06030
C06030
C06030
C06030
C06030
C06030
C06030
C06030
C06030
C06030
ENDCHAR
STARTCHAR N.alt
ENCODING -1
SWIDTH 827 0
DWIDTH 16 0
BBX 14 14 1 0
BITMAP
FFF8
FFFC
C00C
C00C
C00C
C00C
C00C
C00C
C00C
C00C
C00C
C00C
C00C
C00C
ENDCHAR
STARTCHAR O.alt
ENCODING -1
SWIDTH 824 0
DWIDTH 16 0
BBX 14 14 1 0
BITMAP
7FF8
FFFC
C00C
C00C
C00C
C00C
C30C
C30C
C00C
C00C
C00C
C00C
FFFC
7FF8
ENDCHAR
STARTCHAR Q.alt
ENCODING -1
SWIDTH 868 0
DWIDTH 17 0
BBX 14 16 1 -2
BITMAP
7FF8
FFFC
C00C
C00C
C00C
C00C
C00C
C00C
C00C
C00C
C00C
C00C
FFFC
7FF8
0300
0300
ENDCHAR
STARTCHAR R.alt
ENCODING -1
SWIDTH 826 0
DWIDTH 16 0
BBX 14 14 1 0
BITMAP
FFF8
FFFC
C00C
C00C
C00C
C00C
C00C
FFF8
FFF8
C00C
C00C
C00C
C00C
C00C
ENDCHAR
STARTCHAR S.alt
ENCODING -1
SWIDTH 812 0
DWIDTH 16 0
BBX 14 14 1 0
BITMAP
7FFC
FFFC
C000
C000
C000
C000
FFF8
7FFC
000C
000C
000C
000C
FFFC
FFF8
ENDCHAR
STARTCHAR V.alt2
ENCODING -1
SWIDTH 774 0
DWIDTH 15 0
BBX 14 14 0 0
BITMAP
C00C
600C
300C
180C
0C0C
0C0C
060C
030C
018C
00CC
006C
006C
003C
001C
ENDCHAR
STARTCHAR V.alt3
ENCODING -1
SWIDTH 827 0
DWIDTH 16 0
BBX 14 14 1 0
BITMAP
C00C
C00C
C00C
C00C
C00C
C00C
C00C
C00C
C00C
C00C
C00C
C00C
FFFC
7FFC
ENDCHAR
STARTCHAR W.alt3
ENCODING -1
SWIDTH 1028 0
DWIDTH 20 0
BBX 18 14 1 0
BITMAP
C000C0
C000C0
C000C0
C000C0
C0C0C0
C1E0C0
C1E0C0
C330C0
C618C0
CC0CC0
D806C0
D002C0
E001C0
E001C0
ENDCHAR
STARTCHAR W.alt4
ENCODING -1
SWIDTH 1155 0
DWIDTH 22 0
BBX 20 14 1 0
BITMAP
C06030
C06030
C06030
C06030
C06030
C06030
C06030
C06030
C06030
C06030
C06030
C06030
FFFFF0
7FFFF0
ENDCHAR
STARTCHAR X.alt
ENCODING -1
SWIDTH 829 0
DWIDTH 16 0
BBX 14 14 1 0
BITMAP
C00C
C00C
C00C
C00C
C00C
C00C
7FF8
7FF8
C00C
C00C
C00C
C00C
C00C
C00C
ENDCHAR
STARTCHAR Y.alt
ENCODING -1
SWIDTH 824 0
DWIDTH 16 0
BBX 14 14 1 0
BITMAP
C00C
C00C
C00C
C00C
C00C
C00C
FFFC
7FFC
000C
000C
000C
000C
FFFC
FFF8
ENDCHAR
STARTCHAR Z.alt
ENCODING -1
SWIDTH 818 0
DWIDTH 16 0
BBX 14 14 1 0
BITMAP
FFF8
FFFC
000C
000C
000C
000C
7FFC
FFF8
C000
C000
C000
C000
FFFC
7FFC
ENDCHAR
STARTCHAR a.alt
ENCODING -1
SWIDTH 693 0
DWIDTH 14 0
BBX 12 11 1 0
BITMAP
7FE0
FFF0
C030
C030
C030
C030
C030
C030
C030
FFF0
7FF0
ENDCHAR
STARTCHAR a.sc
ENCODING -1
SWIDTH 725 0
DWIDTH 14 0
BBX 12 11 1 0
BITMAP
7FE0
FFF0
C030
C030
C030
C030
FFF0
FFF0
C030
C030
C030
ENDCHAR
STARTCHAR b.sc
ENCODING -1
SWIDTH 700 0
DWIDTH 14 0
BBX 12 11 1 0
BITMAP
FFC0
FFE0
C060
C060
C060
FFE0
FFF0
C030
C030
FFF0
FFE0
ENDCHAR
STARTCHAR c.sc
ENCODING -1
SWIDTH 693 0
DWIDTH 13 0
BBX 12 11 1 0
BITMAP
7FF0
FFF0
C000
C000
C000
C000
C000
C000
C000
FFF0
7FF0
ENDCHAR
STARTCHAR d.sc
ENCODING -1
SWIDTH 705 0
DWIDTH 14 0
BBX 12 11 1 0
BITMAP
FFE0
FFF0
C030
C030
C030
C030
C030
C030
C030
FFF0
FFE0
ENDCHAR
STARTCHAR e.sc
ENCODING -1
SWIDTH 638 0
DWIDTH 12 0
BBX 10 11 1 0
BITMAP
FFC0
FFC0
C000
C000
FF00
FF00
C000
C000
C000
FFC0
FFC0
ENDCHAR
STARTCHAR f.sc
ENCODING -1
SWIDTH 591 0
DWIDTH 11 0
BBX 10 11 1 0
BITMAP
FFC0
FFC0
C000
C000
FF00
FF00
C000
C000
C000
C000
C000
ENDCHAR
STARTCHAR g.sc
ENCODING -1
SWIDTH 690 0
DWIDTH 14 0
BBX 12 11 1 0
BITMAP
7FE0
FFF0
C030
C000
C000
C1F0
C1F0
C030
C030
FFF0
7FE0
ENDCHAR
STARTCHAR h.sc
ENCODING -1
SWIDTH 715 0
DWIDTH 14 0
BBX 12 11 1 0
BITMAP
C030
C030
C030
C030
FFF0
FFF0
C030
C030
C030
C030
C030
ENDCHAR
STARTCHAR i.sc
ENCODING -1
SWIDTH 214 0
DWIDTH 4 0
BBX 2 11 1 0
BITMAP
C0
C0
C0
C0
C0
C0
C0
C0
C0
C0
C0
ENDCHAR
STARTCHAR j.sc
ENCODING -1
SWIDTH 657 0
DWIDTH 13 0
BBX 12 11 0 0
BITMAP
0030
0030
0030
0030
0030
0030
0030
0030
C030
FFF0
7FE0
ENDCHAR
STARTCHAR k.alt
ENCODING -1
SWIDTH 669 0
DWIDTH 14 0
BBX 12 15 1 0
BITMAP
C000
C000
C000
C030
C030
C030
C030
C030
FFF0
FFF0
C030
C030
C030
C030
C030
ENDCHAR
STARTCHAR k.sc
ENCODING -1
SWIDTH 682 0
DWIDTH 13 0
BBX 11 11 1 0
BITMAP
C060
C0C0
C180
C300
FE00
FC00
C600
C300
C180
C0C0
C060
ENDCHAR
STARTCHAR l.sc
ENCODING -1
SWIDTH 659 0
DWIDTH 13 0
BBX 12 11 1 0
BITMAP
C000
C000
C000
C000
C000
C000
C000
C000
C000
FFF0
FFF0
ENDCHAR
STARTCHAR m.sc
ENCODING -1
SWIDTH 824 0
DWIDTH 16 0
BBX 14 11 1 0
BITMAP
C01C
E01C
D02C
D86C
C84C
C48C
C78C
C30C
C20C
C00C
C00C
ENDCHAR
STARTCHAR n.sc
ENCODING -1
SWIDTH 708 0
DWIDTH 14 0
BBX 12 11 1 0
BITMAP
E030
E030
D030
C830
CC30
C630
C330
C1B0
C0B0
C070
C070
ENDCHAR
STARTCHAR o.sc
ENCODING -1
SWIDTH 692 0
DWIDTH 14 0
BBX 12 11 1 0
BITMAP
7FE0
FFF0
C030
C030
C030
C030
C030
C030
C030
FFF0
7FE0
ENDCHAR
STARTCHAR p.sc
ENCODING -1
SWIDTH 660 0
DWIDTH 14 0
BBX 12 11 1 0
BITMAP
FFE0
FFF0
C030
C030
C030
FFF0
FFE0
C000
C000
C000
C000
ENDCHAR
STARTCHAR q.sc
ENCODING -1
SWIDTH 770 0
DWIDTH 15 0
BBX 14 11 1 0
BITMAP
7FE0
FFF0
C030
C030
C030
C030
C030
C030
C030
FFFC
7FFC
ENDCHAR
STARTCHAR r.sc
ENCODING -1
SWIDTH 700 0
DWIDTH 14 0
BBX 12 11 1 0
BITMAP
FFE0
FFF0
C030
C030
C030
FFF0
FFE0
C300
C180
C0C0
C070
ENDCHAR
STARTCHAR s.sc
ENCODING -1
SWIDTH 687 0
DWIDTH 14 0
BBX 12 11 1 0
BITMAP
7FE0
FFF0
C030
C000
FFE0
7FF0
0030
0030
C030
FFF0
7FE0
ENDCHAR
STARTCHAR t.sc
ENCODING -1
SWIDTH 644 0
DWIDTH 12 0
BBX 12 11 0 0
BITMAP
FFF0
FFF0
0600
0600
0600
0600
0600
0600
0600
0600
0600
ENDCHAR
STARTCHAR u.sc
ENCODING -1
SWIDTH 695 0
DWIDTH 14 0
BBX 12 11 1 0
BITMAP
C030
C030
C030
C030
C030
C030
C030
C030
C030
FFF0
7FE0
ENDCHAR
STARTCHAR v.alt
ENCODING -1
SWIDTH 697 0
DWIDTH 14 0
BBX 12 11 1 0
BITMAP
C030
C030
C030
C030
C030
C030
C030
C030
C030
FFF0
7FF0
ENDCHAR
STARTCHAR v.sc
ENCODING -1
SWIDTH 801 0
DWIDTH 15 0
BBX 15 11 0 0
BITMAP
E00E
600C
3018
3018
1830
1820
0C60
0440
06C0
0380
0380
ENDCHAR
STARTCHAR w.alt
ENCODING -1
SWIDTH 978 0
DWIDTH 19 0
BBX 17 11 1 0
BITMAP
C18180
C18180
C18180
C18180
C18180
C18180
C18180
C18180
C18180
FFFF80
7FFF80
ENDCHAR
STARTCHAR w.sc
ENCODING -1
SWIDTH 1078 0
DWIDTH 20 0
BBX 19 11 1 0
BITMAP
C0E060
C0E040
41E0C0
61B0C0
633080
331980
361900
160F00
1E0F00
1C0600
0C0600
ENDCHAR
STARTCHAR x.alt
ENCODING -1
SWIDTH 698 0
DWIDTH 14 0
BBX 12 11 1 0
BITMAP
C030
C030
C030
C030
FFF0
7FE0
C030
C030
C030
C030
C030
ENDCHAR
STARTCHAR x.sc
ENCODING -1
SWIDTH 692 0
DWIDTH 13 0
BBX 11 11 1 0
BITMAP
C060
60C0
3180
1B00
0E00
0E00
0E00
1B00
3180
60C0
C060
ENDCHAR
STARTCHAR y.sc
ENCODING -1
SWIDTH 688 0
DWIDTH 13 0
BBX 12 11 0 0
BITMAP
C030
6060
30C0
31C0
1980
0F00
0F00
0600
0600
0600
0600
ENDCHAR
STARTCHAR z.alt
ENCODING -1
SWIDTH 692 0
DWIDTH 14 0
BBX 12 11 1 0
BITMAP
FFE0
FFF0
0030
0030
7FF0
FFE0
C000
C000
C000
FFF0
7FF0
ENDCHAR
STARTCHAR z.sc
ENCODING -1
SWIDTH 698 0
DWIDTH 13 0
BBX 11 11 1 0
BITMAP
FFE0
FFE0
0060
0180
0300
0600
1800
3000
4000
FFE0
FFE0
ENDCHAR
ENDFONT
